<svg width="36" height="36" viewBox="0 0 36 36" fill="none" xmlns="http://www.w3.org/2000/svg">
  <path fill-rule="evenodd" clip-rule="evenodd"
    d="M13.5 7.5C13.5 6.70435 13.8161 5.94129 14.3787 5.37868C14.9413 4.81607 15.7044 4.5 16.5 4.5H19.5C20.2956 4.5 21.0587 4.81607 21.6213 5.37868C22.1839 5.94129 22.5 6.70435 22.5 7.5V13.5H28.5C29.2956 13.5 30.0587 13.8161 30.6213 14.3787C31.1839 14.9413 31.5 15.7044 31.5 16.5V19.5C31.5 20.2956 31.1839 21.0587 30.6213 21.6213C30.0587 22.1839 29.2956 22.5 28.5 22.5H22.5V28.5C22.5 29.2956 22.1839 30.0587 21.6213 30.6213C21.0587 31.1839 20.2956 31.5 19.5 31.5H16.5C15.7044 31.5 14.9413 31.1839 14.3787 30.6213C13.8161 30.0587 13.5 29.2956 13.5 28.5V22.5H7.5C6.70435 22.5 5.94129 22.1839 5.37868 21.6213C4.81607 21.0587 4.5 20.2956 4.5 19.5V16.5C4.5 15.7044 4.81607 14.9413 5.37868 14.3787C5.94129 13.8161 6.70435 13.5 7.5 13.5H13.5V7.5Z"
    fill="black" />
</svg>