<svg width="36" height="36" viewBox="0 0 36 36" fill="none" xmlns="http://www.w3.org/2000/svg">
  <path fill-rule="evenodd" clip-rule="evenodd"
    d="M23.31 4.5C22.953 4.94397 22.6842 5.45209 22.518 5.997H21.57C20.3765 5.997 19.2319 6.47111 18.388 7.31502C17.5441 8.15893 17.07 9.30353 17.07 10.497C17.07 11.6905 17.5441 12.8351 18.388 13.679C19.2319 14.5229 20.3765 14.997 21.57 14.997H22.515C22.725 15.681 23.1 16.326 23.64 16.866C24.0788 17.3053 24.604 17.6488 25.1823 17.8747C25.7607 18.1006 26.3796 18.2041 27 18.1785V28.5H30C30.3978 28.5 30.7794 28.658 31.0607 28.9393C31.342 29.2206 31.5 29.6022 31.5 30C31.5 30.3978 31.342 30.7794 31.0607 31.0607C30.7794 31.342 30.3978 31.5 30 31.5H6C5.60218 31.5 5.22064 31.342 4.93934 31.0607C4.65804 30.7794 4.5 30.3978 4.5 30C4.5 29.6022 4.65804 29.2206 4.93934 28.9393C5.22064 28.658 5.60218 28.5 6 28.5V7.5C6 6.70435 6.31607 5.94129 6.87868 5.37868C7.44129 4.81607 8.20435 4.5 9 4.5H23.31ZM20.25 19.5C19.6533 19.5 19.081 19.7371 18.659 20.159C18.2371 20.581 18 21.1533 18 21.75C18 22.3467 18.2371 22.919 18.659 23.341C19.081 23.7629 19.6533 24 20.25 24C20.8467 24 21.419 23.7629 21.841 23.341C22.2629 22.919 22.5 22.3467 22.5 21.75C22.5 21.1533 22.2629 20.581 21.841 20.159C21.419 19.7371 20.8467 19.5 20.25 19.5ZM27.8805 6.258L31.0605 9.438C31.3412 9.71923 31.4989 10.1004 31.4989 10.4977C31.4989 10.8951 31.3412 11.2763 31.0605 11.5575L27.8805 14.742C27.7422 14.8854 27.5768 14.9997 27.3938 15.0785C27.2109 15.1572 27.0141 15.1987 26.8149 15.2006C26.6158 15.2025 26.4182 15.1647 26.2338 15.0894C26.0494 15.0141 25.8819 14.9028 25.7409 14.7621C25.6 14.6214 25.4885 14.454 25.413 14.2697C25.3374 14.0854 25.2993 13.8879 25.3009 13.6887C25.3025 13.4895 25.3437 13.2927 25.4222 13.1096C25.5007 12.9266 25.6148 12.761 25.758 12.6225L26.382 11.997H21.57C21.1722 11.997 20.7906 11.839 20.5093 11.5577C20.228 11.2764 20.07 10.8948 20.07 10.497C20.07 10.0992 20.228 9.71764 20.5093 9.43634C20.7906 9.15504 21.1722 8.997 21.57 8.997H26.3775L25.7595 8.379C25.4863 8.0961 25.3351 7.71719 25.3385 7.3239C25.3419 6.9306 25.4997 6.55438 25.7778 6.27627C26.0559 5.99816 26.4321 5.84041 26.8254 5.83699C27.2187 5.83357 27.5976 5.98476 27.8805 6.258Z"
    fill="black" />
</svg>