<svg width="36" height="36" viewBox="0 0 36 36" fill="none" xmlns="http://www.w3.org/2000/svg">
  <path
    d="M12 4.5V9.75C12 10.3467 12.2371 10.919 12.659 11.341C13.081 11.7629 13.6533 12 14.25 12H20.25C20.8467 12 21.419 11.7629 21.841 11.341C22.2629 10.919 22.5 10.3467 22.5 9.75V4.5H23.379C24.1746 4.50017 24.9375 4.81635 25.5 5.379L29.121 9C29.6836 9.56248 29.9998 10.3254 30 11.121V28.5C30 29.2956 29.6839 30.0587 29.1213 30.6213C28.5587 31.1839 27.7956 31.5 27 31.5H24V21C24 20.2044 23.6839 19.4413 23.1213 18.8787C22.5587 18.3161 21.7956 18 21 18H13.5C12.7043 18 11.9413 18.3161 11.3787 18.8787C10.8161 19.4413 10.5 20.2044 10.5 21V31.5H7.5C6.70435 31.5 5.94129 31.1839 5.37868 30.6213C4.81607 30.0587 4.5 29.2956 4.5 28.5V7.5C4.5 6.70435 4.81607 5.94129 5.37868 5.37868C5.94129 4.81607 6.70435 4.5 7.5 4.5H12ZM21 21V31.5H13.5V21H21ZM19.5 4.5V9H15V4.5H19.5Z"
    fill="black" />
</svg>