<svg viewBox="0 0 36 36" fill="none" xmlns="http://www.w3.org/2000/svg">
  <path
    d="M16.125 3.85049C16.6951 3.52136 17.3417 3.34808 18 3.34808C18.6583 3.34808 19.3049 3.52136 19.875 3.85049L29.316 9.29999C29.8861 9.62911 30.3594 10.1025 30.6886 10.6725C31.0177 11.2426 31.191 11.8892 31.191 12.5475V23.4495C31.191 24.1077 31.0177 24.7544 30.6886 25.3244C30.3594 25.8945 29.8861 26.3679 29.316 26.697L19.875 32.148C19.3049 32.4771 18.6583 32.6504 18 32.6504C17.3417 32.6504 16.6951 32.4771 16.125 32.148L6.684 26.697C6.11394 26.3679 5.64056 25.8945 5.31143 25.3244C4.9823 24.7544 4.80902 24.1077 4.809 23.4495V12.549C4.80875 11.8905 4.98191 11.2435 5.31105 10.6732C5.6402 10.1029 6.11372 9.62924 6.684 9.29999L16.125 3.85049ZM18 13.5C16.8065 13.5 15.6619 13.9741 14.818 14.818C13.9741 15.6619 13.5 16.8065 13.5 18C13.5 19.1935 13.9741 20.3381 14.818 21.182C15.6619 22.0259 16.8065 22.5 18 22.5C19.1935 22.5 20.3381 22.0259 21.182 21.182C22.0259 20.3381 22.5 19.1935 22.5 18C22.5 16.8065 22.0259 15.6619 21.182 14.818C20.3381 13.9741 19.1935 13.5 18 13.5Z"
    fill="black" />
</svg>