<svg viewBox="0 0 20 20" fill="none" xmlns="http://www.w3.org/2000/svg">
  <path
    d="M17.2167 5.83333C19.5183 9.81916 18.1525 14.9167 14.1667 17.2167C10.7308 19.2 6.4725 18.4592 3.8875 15.6667C3.74112 15.5038 3.6647 15.2899 3.67478 15.0712C3.68485 14.8525 3.78061 14.6465 3.94134 14.4978C4.10207 14.3491 4.31486 14.2697 4.53371 14.2766C4.75255 14.2836 4.95987 14.3764 5.11083 14.535C6.14044 15.6454 7.51739 16.3721 9.01506 16.5957C10.5127 16.8192 12.0419 16.5263 13.3509 15.765C14.6599 15.0037 15.6707 13.8195 16.217 12.4072C16.7633 10.9949 16.8125 9.43871 16.3566 7.99472C15.9006 6.55072 14.9667 5.30498 13.7084 4.46249C12.4501 3.62 10.9425 3.23098 9.43374 3.35944C7.92493 3.4879 6.50481 4.12619 5.40708 5.16926C4.30936 6.21233 3.59944 7.59804 3.39417 9.09833L4.46167 8.81916C5.33417 8.59166 5.97667 9.6275 5.385 10.3083L3.50833 12.4642C3.035 13.0075 2.12083 12.8225 1.93167 12.0942C1.47415 10.3291 1.60801 8.46267 2.31273 6.78094C3.01745 5.09921 4.25416 3.69495 5.83333 2.78333C9.81917 0.482496 14.9158 1.8475 17.2167 5.83333ZM10 5C10.221 5 10.433 5.08779 10.5893 5.24407C10.7455 5.40035 10.8333 5.61232 10.8333 5.83333V9.655L13.0892 11.9108C13.1688 11.9877 13.2322 12.0797 13.2759 12.1813C13.3196 12.283 13.3426 12.3923 13.3435 12.503C13.3445 12.6136 13.3234 12.7234 13.2815 12.8258C13.2396 12.9282 13.1777 13.0212 13.0995 13.0995C13.0213 13.1777 12.9282 13.2396 12.8258 13.2815C12.7234 13.3234 12.6136 13.3445 12.503 13.3435C12.3923 13.3426 12.283 13.3196 12.1813 13.2759C12.0797 13.2322 11.9877 13.1688 11.9108 13.0892L9.41083 10.5892C9.25454 10.4329 9.16671 10.221 9.16667 10V5.83333C9.16667 5.61232 9.25446 5.40035 9.41074 5.24407C9.56702 5.08779 9.77899 5 10 5Z"
    fill="white" />
</svg>