<svg width="20" height="20" viewBox="0 0 20 20" fill="none" xmlns="http://www.w3.org/2000/svg">
  <path
    d="M10 1.66666C14.6025 1.66666 18.3333 5.39749 18.3333 9.99999C18.3333 14.6025 14.6025 18.3333 10 18.3333C5.3975 18.3333 1.66667 14.6025 1.66667 9.99999C1.66667 5.39749 5.3975 1.66666 10 1.66666ZM10 3.33332C8.23189 3.33332 6.5362 4.0357 5.28596 5.28594C4.03571 6.53619 3.33333 8.23188 3.33333 9.99999C3.33333 11.7681 4.03571 13.4638 5.28596 14.714C6.5362 15.9643 8.23189 16.6667 10 16.6667C11.7681 16.6667 13.4638 15.9643 14.714 14.714C15.9643 13.4638 16.6667 11.7681 16.6667 9.99999C16.6667 8.23188 15.9643 6.53619 14.714 5.28594C13.4638 4.0357 11.7681 3.33332 10 3.33332ZM9.99167 8.33332C10.4567 8.33332 10.8333 8.70999 10.8333 9.17499V13.445C10.9922 13.5367 11.1163 13.6783 11.1865 13.8478C11.2567 14.0173 11.269 14.2052 11.2216 14.3823C11.1741 14.5595 11.0695 14.7161 10.9239 14.8278C10.7784 14.9394 10.6001 15 10.4167 15H10.0083C9.89781 15 9.78836 14.9782 9.68624 14.9359C9.58413 14.8936 9.49134 14.8316 9.41319 14.7535C9.33503 14.6753 9.27303 14.5825 9.23074 14.4804C9.18844 14.3783 9.16667 14.2689 9.16667 14.1583V9.99999C8.94565 9.99999 8.73369 9.91219 8.57741 9.75591C8.42113 9.59963 8.33333 9.38767 8.33333 9.16666C8.33333 8.94564 8.42113 8.73368 8.57741 8.5774C8.73369 8.42112 8.94565 8.33332 9.16667 8.33332H9.99167ZM10 5.83332C10.221 5.83332 10.433 5.92112 10.5893 6.0774C10.7455 6.23368 10.8333 6.44564 10.8333 6.66666C10.8333 6.88767 10.7455 7.09963 10.5893 7.25591C10.433 7.41219 10.221 7.49999 10 7.49999C9.77899 7.49999 9.56703 7.41219 9.41075 7.25591C9.25447 7.09963 9.16667 6.88767 9.16667 6.66666C9.16667 6.44564 9.25447 6.23368 9.41075 6.0774C9.56703 5.92112 9.77899 5.83332 10 5.83332Z"
    fill="white" />
</svg>