<svg viewBox="0 0 20 20" fill="none" xmlns="http://www.w3.org/2000/svg">
  <path fill-rule="evenodd" clip-rule="evenodd"
    d="M11.0267 1.13333C11.5533 0.501668 12.5792 0.933335 12.4958 1.75167L11.9075 7.5H16.6667C16.825 7.50006 16.9801 7.54523 17.1137 7.63023C17.2473 7.71522 17.3539 7.83652 17.421 7.97992C17.4882 8.12332 17.5131 8.28289 17.4928 8.43993C17.4726 8.59698 17.408 8.745 17.3067 8.86667L8.97333 18.8667C8.44667 19.4983 7.42083 19.0667 7.50417 18.2483L8.0925 12.5H3.33333C3.17499 12.4999 3.01994 12.4548 2.88634 12.3698C2.75274 12.2848 2.64612 12.1635 2.57896 12.0201C2.51181 11.8767 2.4869 11.7171 2.50716 11.5601C2.52741 11.403 2.59199 11.255 2.69333 11.1333L11.0267 1.13333ZM5.1125 10.8333H9.56917C9.61575 10.8333 9.66182 10.8431 9.7044 10.862C9.74698 10.8809 9.78513 10.9085 9.81638 10.9431C9.84763 10.9776 9.87129 11.0183 9.88584 11.0626C9.90038 11.1068 9.90549 11.1536 9.90083 11.2L9.44 15.7042L14.8875 9.16667H10.4308C10.3842 9.16667 10.3382 9.15691 10.2956 9.13801C10.253 9.11911 10.2149 9.09149 10.1836 9.05694C10.1524 9.0224 10.1287 8.98168 10.1142 8.93742C10.0996 8.89317 10.0945 8.84635 10.0992 8.8L10.56 4.29667L5.1125 10.8333Z"
    fill="black" />
</svg>